<?xml version="1.0" encoding="utf-8"?>
<!-- Generator: Adobe Illustrator 22.0.0, SVG Export Plug-In . SVG Version: 6.00 Build 0)  -->
<svg version="1.1" id="Layer_1" xmlns="http://www.w3.org/2000/svg" xmlns:xlink="http://www.w3.org/1999/xlink" x="0px" y="0px"
	 viewBox="0 0 2098.9 1141.7" style="enable-background:new 0 0 2098.9 1141.7;" xml:space="preserve">
<style type="text/css">
	.st0{fill:#8840E6;}
	.st1{fill:#2DCAFF;}
	.st2{fill:#8860E6;}
	.st3{fill:#8163FF;}
	.st4{fill:#FF1320;}
	.st5{fill:#46CAFF;}
	.st6{fill:#BF136F;}
	.st7{fill:#E76BBF;}
	.st8{fill:#19C56C;}
	.st9{fill:#68C057;}
	.st10{fill:#7260B7;}
	.st11{fill:#00A9EE;}
	.st12{fill:#6689B8;}
	.st13{fill:#FFC521;}
	.st14{fill:#933682;}
	.st15{fill:#FF912A;}
	.st16{fill:#148C66;}
	.st17{fill:#F57239;}
	.st18{fill:#147350;}
</style>
<g id="graphics">
	<path class="st0" d="M1021.5,1123.8c-0.3-0.2-0.6-0.4-0.8-0.6l-0.2-0.1c-0.6-0.5-1.3-1-2-1.6l-0.2-0.1l-1.1-1l0,0l-1.2-1.1
		l-0.1-0.1l-1.3-1.3l-0.1-0.1c-0.9-0.9-1.8-1.9-2.7-2.9l-0.1-0.1c-1-1.1-2-2.2-3-3.4v-0.1c-27.2-32.4-76.5-119.1-68.1-250.1
		c1-32.9,7.9-73.6,23.5-124c4.7-21.3,8-42.8,10.1-64.5c0.3-2.9,0.6-5.8,0.8-8.7c0.7-7.2,1.2-14.4,1.7-21.5c0.2-2.8,0.4-5.6,0.5-8.4
		c0.2-4.2,0.4-8.3,0.6-12.3c0.2-4,0.3-8,0.4-11.9c0-1.3,0.1-2.6,0.1-3.8c0.3-11.4,0.4-22,0.4-31.4c0-25-0.9-41.3-0.9-41.3
		c0-5.7,2.3-11.1,6.3-15.1c0.2-0.3,0.5-0.5,0.8-0.7c0.5-0.5,1-0.9,1.6-1.3c0.6-0.4,1.1-0.8,1.7-1.2c0.6-0.4,1.2-0.7,1.8-1
		c2.9-1.4,6.1-2.1,9.3-2.1h91c-12.9-22.1-28.4-42.7-46-61.3c-21.1-22.4-44.6-42.4-70.1-59.6v-4.3c8.1-1.9,13.9-9.2,13.9-17.5v-35.7
		c0-9.9-8.1-18-18-18H670.7c-9.9,0-18,8.1-18,18V369c0,8.4,5.8,15.6,13.9,17.5v4.3c-25.5,17.2-49,37.2-70.1,59.6
		c-23,24.5-41.3,50.4-54.5,77.1c-1.3,2.6-2.5,5.3-3.7,7.9h99.2c9.4,0,17,7.6,17,17v25.6l0,0v12.8c0,0.5,0,1-0.1,1.6v0.3
		c0,0.5-0.1,1-0.2,1.5l-0.1,0.3c-0.1,0.5-0.2,0.9-0.3,1.4c0,0,0,0.1,0,0.1c-0.1,0.5-0.3,0.9-0.5,1.4l-0.1,0.3
		c-0.2,0.4-0.4,0.9-0.6,1.3c0,0.1-0.1,0.1-0.1,0.2c-0.2,0.4-0.5,0.8-0.7,1.1l-0.1,0.2c-0.3,0.4-0.6,0.8-0.8,1.1l-0.2,0.2
		c-0.3,0.4-0.6,0.7-1,1l-0.1,0.1c-0.3,0.3-0.7,0.6-1,0.9l-0.2,0.2c-0.3,0.2-0.6,0.5-0.9,0.7c7.3,4.4,14.2,9.2,20.8,14.5
		c17.4,14.4,26.2,29.3,26.2,44.3v365.3c1,8.8,1.2,17.7,0.6,26.5c-1.4,21.8-7.4,39-17.9,51.1c-10,11.5-23.7,17.9-40,18.8
		c2.3,0.1,4.6,0.1,6.9,0.1h353.3c8.3,0,16.6-0.4,24.9-1.3l-0.4-0.3L1021.5,1123.8z"/>
	<path class="st1" d="M1472.7,1088.9v-9c0-0.1,0-0.1,0-0.2V722.3c0-0.3,0.2-0.5,0.5-0.5h19.5v-48.5h-13.4c-0.1,0-0.3-0.1-0.4-0.2
		c-0.1-0.1-0.1-0.2-0.1-0.4c0,0-1.2-12.7-1.2-32.1c0-33.5,3.4-87,21.8-128.9H1420c-33.8,0-77.9,143.7-64.6,198.6l0.2,0.8
		c-19.2-5.9-35.4-28.4-35.4-28.4h-121.6c0,0-16.3,22.5-35.4,28.4l0.2-0.8c13.4-55-30.8-198.6-64.6-198.6h-8.2
		c3,5.2,5.9,10.5,8.5,15.8c16.8,33.9,25.3,69,25.3,104.4v398.8c-0.1,6.9-1,13.7-2.9,20.4c-4,14.9-11.8,28.5-22.6,39.6
		c-18.1,18.6-43.9,29.7-76.8,33.4c0.1,0.1,0.2,0.2,0.3,0.2l0.1,0.1c0.2,0.2,0.5,0.3,0.7,0.4l0.1,0.1c0.2,0.1,0.4,0.2,0.6,0.3h0.1
		c0.2,0.1,0.3,0.1,0.5,0.2h0.1c0.1,0,0.3,0.1,0.4,0.1h468.8c0.8,0,2.1-0.7,3.8-1.9C1482.7,1118.4,1472.7,1104.5,1472.7,1088.9z"/>
	<path class="st2" d="M1121.4,1051.2c1.9-6.6,2.8-13.5,2.9-20.4V632c0-35.4-8.5-70.5-25.3-104.4c-2.6-5.3-5.4-10.6-8.5-15.8h-91
		c-3.2,0-6.4,0.7-9.3,2.1c-0.6,0.3-1.2,0.6-1.8,1c-0.6,0.4-1.2,0.8-1.7,1.2c-0.5,0.4-1.1,0.8-1.6,1.3c-0.3,0.2-0.5,0.5-0.8,0.7
		c-4,4-6.3,9.4-6.3,15.1c0,0,0.9,16.3,0.9,41.3c0,9.4-0.1,20-0.4,31.4c0,1.3-0.1,2.5-0.1,3.8c-0.1,3.9-0.3,7.8-0.4,11.9
		s-0.4,8.1-0.6,12.3c-0.2,2.8-0.3,5.6-0.5,8.4c-0.4,7-1,14.2-1.7,21.5c-0.3,2.9-0.5,5.8-0.8,8.7c-2.1,21.7-5.5,43.2-10.1,64.5
		c-15.6,50.3-22.5,91-23.5,124c-8.4,131,40.9,217.7,68.1,250.1v0.1c1,1.2,2,2.4,3,3.4l0.1,0.1c1,1.1,1.9,2,2.7,2.9l0.1,0.1l1.3,1.3
		l0.1,0.1l1.2,1.1l0,0l1.1,1l0.2,0.1c0.7,0.6,1.3,1.2,2,1.6l0.2,0.1c0.3,0.2,0.6,0.4,0.8,0.6l0.1,0.1l0.4,0.3
		c33-3.6,58.7-14.8,76.8-33.4C1109.6,1079.7,1117.3,1066.1,1121.4,1051.2z"/>
	<path class="st3" d="M1121.4,1051.2c1.9-6.6,2.8-13.5,2.9-20.4V632c0-35.4-8.5-70.5-25.3-104.4c-2.6-5.3-5.4-10.6-8.5-15.8h-91
		c-3.2,0-6.4,0.7-9.3,2.1c-0.6,0.3-1.2,0.6-1.8,1c-0.6,0.4-1.2,0.8-1.7,1.2c-0.5,0.4-1.1,0.8-1.6,1.3c-0.3,0.2-0.5,0.5-0.8,0.7
		c-4,4-6.3,9.4-6.3,15.1c0,0,0.9,16.3,0.9,41.3c0,9.4-0.1,20-0.4,31.4c0,1.3-0.1,2.5-0.1,3.8c-0.1,3.9-0.3,7.8-0.4,11.9
		s-0.4,8.1-0.6,12.3c-0.2,2.8-0.3,5.6-0.5,8.4c-0.4,7-1,14.2-1.7,21.5c-0.3,2.9-0.5,5.8-0.8,8.7c-2.1,21.7-5.5,43.2-10.1,64.5
		c-15.6,50.3-22.5,91-23.5,124c-8.4,131,40.9,217.7,68.1,250.1v0.1c1,1.2,2,2.4,3,3.4l0.1,0.1c1,1.1,1.9,2,2.7,2.9l0.1,0.1l1.3,1.3
		l0.1,0.1l1.2,1.1l0,0l1.1,1l0.2,0.1c0.7,0.6,1.3,1.2,2,1.6l0.2,0.1c0.3,0.2,0.6,0.4,0.8,0.6l0.1,0.1l0.4,0.3
		c33-3.6,58.7-14.8,76.8-33.4C1109.6,1079.7,1117.3,1066.1,1121.4,1051.2z"/>
	<path class="st4" d="M1641,1094.4c-0.8-1.7-2.8-5.8-2.3-10.2c0.4-13.6,0.1-232.8,0-315.9c0-22.2-0.1-38.2-0.1-42.7
		c0-6.3,1.9-18,18.5-46.9c8.8-15.4,19.3-31.2,27.2-42.6v-93.2c-9.3-35.1-25.8-67.8-55-83.6c0.4,0,0.4-28.8,0-28.8l4.6-2.4
		c0.6,0,1-0.4,1-1v-10.9c0-0.6-0.4-1-0.9-1c0,0,0,0-0.1,0h-22v-27.8h13.2v-26.5c0-7.2-5.8-13-13-13h-51c-7.2,0-13,5.8-13,13v26.5
		h13.2V415h-22c-0.6,0-1,0.5-1,1v10.9c0,0.5,0.5,1,1,1l4.6,2.4c-0.4,0-0.4,28.8,0,28.8c-20.3,11-34.5,30.1-44.3,52.6h19.7
		c11.8,0,21.4,9.6,21.4,21.4c0,0-6.1,116,13.8,203.8c71.2,229.5-33,368.8-56.9,386.5c3.8,1.3,7.7,1.9,11.7,1.9h12.2
		c10.9,0,21.2-4.8,28.1-13.2c6.9,8.4,17.2,13.2,28.1,13.2h12.2c10.9,0,21.2-4.8,28.1-13.2c6.9,8.4,17.2,13.2,28.1,13.2h12.2
		c6.1,0,12.1-1.5,17.5-4.5c-5.2-1.6-10.2-3.7-14.9-6.4C1648.7,1107.6,1643.2,1099,1641,1094.4z"/>
	<path class="st5" d="M1554.4,737c-19.9-87.8-13.8-203.8-13.8-203.8c-0.1-11.8-9.6-21.3-21.4-21.4h-19.7
		c-18.4,41.9-21.8,95.3-21.8,128.9c0,19.4,1.1,32.1,1.1,32.1c0,0.1,0,0.3,0.1,0.4c0.1,0.1,0.2,0.1,0.4,0.2h13.4v48.5h-19.5
		c-0.3,0-0.5,0.2-0.5,0.5v357.5c0,0.1,0,0.1,0,0.2v9c0,15.6,10,29.6,24.8,34.6C1521.4,1105.8,1625.6,966.5,1554.4,737z"/>
	<path class="st6" d="M1554.4,737c-19.9-87.8-13.8-203.8-13.8-203.8c-0.1-11.8-9.6-21.3-21.4-21.4h-19.7
		c-18.4,41.9-21.8,95.3-21.8,128.9c0,19.4,1.1,32.1,1.1,32.1c0,0.1,0,0.3,0.1,0.4c0.1,0.1,0.2,0.1,0.4,0.2h13.4v48.5h-19.5
		c-0.3,0-0.5,0.2-0.5,0.5v357.5c0,0.1,0,0.1,0,0.2v9c0,15.6,10,29.6,24.8,34.6C1521.4,1105.8,1625.6,966.5,1554.4,737z"/>
	<path class="st7" d="M2036,1065.6c0-0.7,0-1.4,0-2.2v-0.7c0-0.5,0-1,0-1.5v-0.2c0-0.4,0-0.8,0-1.1c0-0.2,0-0.4,0-0.6
		c0-0.8,0-1.5-0.1-2.3v-0.9c0-0.7,0-1.4-0.1-2.1v-0.8l-0.1-2.9v-0.4c0-0.8-0.1-1.7-0.1-2.5v-0.1c-0.1-1.3-0.1-2.7-0.2-4
		c0-0.3-0.1-0.5-0.1-0.8c0-0.7-0.1-1.4-0.1-2.1l0,0c-0.1-1.9-0.3-3.8-0.5-5.8c0-0.2,0-0.3,0-0.5c-0.2-1.8-0.3-3.6-0.5-5.3
		c0-0.1,0-0.3,0-0.4c-0.2-1.9-0.4-3.7-0.6-5.5v-0.3c-0.2-1.8-0.4-3.5-0.7-5.2c0-0.2,0-0.3-0.1-0.5c-0.3-1.7-0.5-3.4-0.8-5.1
		c0-0.1,0-0.2,0-0.2c-0.3-1.7-0.6-3.4-0.9-5.1c0-0.1,0-0.2-0.1-0.4c-0.3-1.6-0.6-3.2-0.9-4.8c0-0.1-0.1-0.3-0.1-0.4
		c-0.3-1.7-0.7-3.3-1-4.9l0,0c-6.7-31.3-17.1-52.3-27.3-51.6c-0.4,0-0.9,0.1-1.3,0.2c-0.5,0-1,0-1.5,0l-18,1.3
		c-5,0.4-9.4,4.9-12.9,12.7l-78.3,12.7l-7.9,1.3l-11.6,1.9l-4.7,0.8l-8.8,1.4l-2,0.3l-14.3,2.3l-3.6,0.6l-23.3,3.8
		c0,52.9,0,94.8,0.2,100.6c0.5,4.4-1.5,8.5-2.3,10.2c-2.2,4.5-7.7,13.2-19.8,20.1c-10.6,6.1-24,9.6-39.8,10.6c1.9,2,3.8,3.1,5.7,2.9
		c0.3,0,0.5-0.1,0.8-0.1v0.1l85.7,1.1l7.4,0.1l9.9,0.1l6.6,0.1l8.9,0.1l7.7,0.1l8.8,0.1l7.9,0.1l8.6,0.1l8.3,0.1l62.4,0.8
		c4.7,7.4,9.8,11.4,14.9,11l18.1-1.3c0.5,0,1-0.1,1.4-0.2c0.4,0,0.9,0,1.3,0c5.3-0.4,9.8-6.5,13.1-16.8c0-0.1,0.1-0.3,0.1-0.4
		c0.1-0.4,0.3-0.8,0.4-1.3c0-0.1,0.1-0.3,0.1-0.4c0.3-1.1,0.7-2.3,1-3.5c0-0.1,0.1-0.3,0.1-0.4c0.1-0.5,0.2-1,0.4-1.4l0.1-0.5
		c0.1-0.6,0.3-1.1,0.4-1.7c0-0.1,0-0.1,0-0.2c0.1-0.7,0.3-1.3,0.4-2c0-0.1,0.1-0.3,0.1-0.4c0.1-0.5,0.2-1.1,0.3-1.6
		c0-0.2,0.1-0.4,0.1-0.6l0.1-0.7l0,0l0.2-1.1c0-0.1,0-0.2,0.1-0.4c0.1-0.4,0.1-0.8,0.2-1.2c0-0.1,0-0.2,0-0.3s0.1-0.4,0.1-0.6
		l0.1-0.4c0.1-0.5,0.2-1.1,0.2-1.7c0-0.1,0-0.2,0-0.2s0.1-0.4,0.1-0.6l0.2-1.8c0-0.2,0-0.3,0.1-0.5v-0.1l0.3-2.2v-0.3v-0.4l0.1-0.4
		c0-0.4,0.1-0.8,0.1-1.3c0-0.2,0-0.5,0.1-0.7s0.1-0.7,0.1-1l0,0c0-0.3,0-0.5,0.1-0.8l0.1-0.7c0-0.6,0.1-1.1,0.1-1.7v-0.3
		c0-0.2,0-0.3,0-0.5l0,0c0.1-0.8,0.1-1.6,0.2-2.4c0-0.3,0-0.5,0.1-0.7l0.1-1.9c0-0.3,0-0.5,0-0.8l0.1-2.3c0-0.1,0-0.2,0-0.2
		c0-0.3,0-0.7,0.1-1.1c0-0.1,0-0.2,0-0.3c0-0.4,0-0.8,0.1-1.2v-0.7l0.1-2v-0.8c0-0.7,0-1.5,0.1-2.2l0,0v-0.1c0-0.1,0-0.3,0-0.4
		c0-0.9,0-1.8,0-2.7c0-0.2,0-0.4,0-0.5v-0.2c0-0.7,0-1.4,0-2.1C2036,1066.2,2036,1065.9,2036,1065.6z"/>
	<path class="st8" d="M275.2,1115.1c0-0.3,0-0.5,0.1-0.8h-0.1l-0.2-2.4l0,0l-7.5-86l-0.4-4.8l-0.8-9l-0.5-5.6l-1-11.2l-0.6-7.3
		l-0.9-9.8l-0.6-6.9l-0.8-8.6l-0.5-5.3l-1.1-12.6c-0.6,0.2-1.2,0.5-1.9,0.7c-0.4,0.1-0.8,0.2-1.2,0.3h-0.1l-1,0.2l0,0l-1,0.1l0,0
		c-0.3,0-0.6,0-0.9,0h-0.1c-0.3,0-0.5,0-0.7,0c-7.3-0.6-12.1-11.7-16.8-22.4c-2.1-5.1-4.5-10.1-7.3-14.9l-0.1-0.1
		c-0.3-0.4-0.5-0.8-0.8-1.3l-0.1-0.1l-6.3,4.3l6.2-4.4c-0.3-0.4-0.5-0.8-0.8-1.1l-0.2-0.3c-0.3-0.3-0.5-0.7-0.8-1l-0.3-0.3
		c-0.3-0.3-0.5-0.6-0.8-0.9l-0.3-0.3c-0.3-0.3-0.5-0.6-0.8-0.9l-0.4-0.4c-0.3-0.3-0.6-0.5-0.9-0.8l-0.5-0.4
		c-0.3-0.2-0.6-0.5-0.9-0.7l-0.5-0.4c-0.3-0.2-0.6-0.4-1-0.6l-0.6-0.3c-0.3-0.2-0.7-0.3-1-0.5L218,898c-0.3-0.2-0.7-0.3-1.1-0.4
		l-0.7-0.2c-0.4-0.1-0.7-0.2-1.1-0.3c-0.3-0.1-0.5-0.1-0.8-0.2s-0.7-0.1-1.1-0.2l-0.8-0.1c-0.4,0-0.8,0-1.2-0.1h-0.8
		c-0.4,0-0.8,0-1.1,0.1h-0.1l-0.8,0.1c-0.3,0-0.7,0.1-1.1,0.2h-0.1l-0.7,0.1c-0.4,0.1-0.7,0.2-1.1,0.3h-0.1l-0.7,0.2
		c-0.3,0.1-0.6,0.2-1,0.3l-0.3,0.1l-0.7,0.3c-0.3,0.1-0.7,0.3-1,0.4l-0.2,0.1c-0.2,0.1-0.5,0.2-0.7,0.3l-0.9,0.5l-0.3,0.2l-0.6,0.4
		c-0.3,0.2-0.6,0.4-1,0.6l-0.3,0.2l-0.6,0.4l-1,0.7l-0.4,0.3l-0.6,0.4l-1.1,0.9l-0.3,0.2l-0.5,0.4c-0.6,0.5-1.3,1.1-2,1.6
		c-7.4,6.4-15.2,10-23.8,10.8c-0.9,0.1-1.9,0.2-2.8,0.2c-2.3,0.1-4.7,0-7-0.2c-1-0.1-1.9-0.2-2.8-0.3c-2.9-0.4-5.8-0.9-8.4-1.4
		l-2-0.4l-3.6-0.7c-0.9-0.2-1.9-0.3-2.8-0.5c-2.3-0.4-4.7-0.7-7.1-0.8h-1.4c-1,0-2,0-2.9,0.1c-1.5,0.1-3,0.3-4.4,0.7
		c-1.5,0.4-3,0.9-4.5,1.5c-2.5,1.2-4.8,2.8-6.7,4.9c-0.8,0.9-1.5,1.8-2.2,2.7c-2.2,3.1-3.9,6.6-5,10.3c-0.1,0.4-0.3,0.9-0.4,1.3
		l-0.3,0.7c-0.1,0.2-0.1,0.4-0.2,0.5s-0.1,0.2-0.1,0.3L102,936l-0.1,0.3l-0.2,0.3l-0.4,0.7l-0.3,0.4l-0.4,0.6l-0.4,0.5l-0.3,0.4
		c-0.1,0.2-0.3,0.4-0.5,0.6l-0.2,0.3c-0.2,0.2-0.4,0.4-0.6,0.6l-0.2,0.2c-0.2,0.2-0.4,0.4-0.6,0.7l-0.2,0.2
		c-0.2,0.2-0.5,0.4-0.7,0.7l-0.2,0.2l-0.7,0.6l-0.2,0.2l-0.8,0.6l-0.2,0.1c-0.3,0.2-0.6,0.4-0.9,0.6l-0.1,0.1
		c-0.3,0.2-0.7,0.4-1,0.6l-0.1,0.1c-0.3,0.2-0.7,0.4-1,0.7l0,0l0,0c-0.4,0.2-0.7,0.4-1.1,0.6c-5.5,3.1-12.1,5.2-18.5,7.2
		c-11.8,3.8-23.9,7.7-28.8,18.2c-3.1,6.7-2.7,14.6,1.3,24.3c1.1,2.6,2.3,5.2,3.6,8c5.8,12.2,11.8,24.8,3.6,39.8
		c-17.1,31.1,9.3,73.8,10.4,75.6c1.4,2.2,3.8,3.5,6.4,3.6l300.5,3.3c2,0,4-0.8,5.4-2.2c-9.5,0.4-20.5,0.4-32,0.4
		C305.1,1125.4,275.2,1124.8,275.2,1115.1z"/>
	<path class="st9" d="M1746.2,1123.6l-9.8,0.7c-9.6,0.7-19.5-26.5-22-60.7s3.2-62.5,12.9-63.3l9.8-0.7c1.4-0.1,2.7,0.3,3.8,1.1
		c1.9-4,4.2-6.3,6.8-6.5c0.2,0,0.5,0,0.8,0v-0.1l2.3-0.4l62.8-10.2c0-73.1,0.2-167.2,0.2-215.4c0-22.2,0.1-38.2,0.1-42.7
		c0-6.1-1.8-17.3-17.2-44.5c-8.4-14.9-18.6-30.4-26.2-41.7V505.7c2.5-2.2,3.9-5.3,3.9-8.6v-11.3c0-3.3-1.4-6.5-3.9-8.6v-2.7
		c0-6.3-5.1-11.4-11.4-11.4l0,0h-63.3c-6.3,0-11.4,5.1-11.4,11.4c0,0,0,0,0,0v2.7c-2.5,2.2-4,5.3-4,8.6V497c0,3.3,1.5,6.5,4,8.6v2.7
		l0,0v34.4c8.1,30.7,10.6,63.2,11.1,88.1l0,0c0.2,11.8,0,21.8-0.3,29.2l0,0c0,0.7,0,1.4-0.1,2v0.1c0,0.6-0.1,1.3-0.1,1.8v0.1
		c0,0.6,0,1.1-0.1,1.7v0.1c0,0.5-0.1,1-0.1,1.5v0.1c0,0.5-0.1,0.9-0.1,1.3v0.2c0,0.4,0,0.8-0.1,1.1v0.1c0,0.3,0,0.6-0.1,0.9v0.1
		c0,0.3,0,0.5-0.1,0.7v0.1c0,0.2,0,0.4,0,0.5l0,0c0,0.3,0,0.5,0,0.5c0,0.3-0.2,0.5-0.5,0.5l0,0h-13.4v48.5h14.2
		c0.3,0,0.5,0.2,0.5,0.5c0,0,0,0,0,0v357.5c0,0.3-0.2,0.5-0.5,0.5c0,0,0,0,0,0v8.6c0,13.3-7.3,25.6-19,32c9.7,3,20.9,4.5,33.5,4.5
		h34c3,0,5.8-0.1,8.7-0.3c-0.9-0.9-1.6-1.9-2.3-3C1748.7,1122.9,1747.5,1123.5,1746.2,1123.6z"/>
	<path class="st4" d="M1694.7,1088.9v-8.6c0.3,0,0.5-0.2,0.5-0.5c0,0,0,0,0,0V722.3c0-0.3-0.2-0.5-0.5-0.5c0,0,0,0,0,0h-14.2v-48.5
		h13.4c0.3,0,0.5-0.2,0.5-0.5l0,0c0,0,0-0.2,0-0.5l0,0c0-0.1,0-0.3,0-0.5v-0.1c0-0.2,0-0.4,0.1-0.7V671c0-0.3,0-0.6,0.1-0.9V670
		c0-0.3,0-0.7,0.1-1.1v-0.1c0-0.4,0-0.8,0.1-1.3v-0.1c0-0.5,0.1-0.9,0.1-1.5v-0.1c0-0.5,0-1.1,0.1-1.7v-0.1c0-0.6,0.1-1.2,0.1-1.8
		v-0.1c0-0.7,0-1.3,0.1-2l0,0c0.3-7.3,0.5-17.4,0.3-29.2l0,0c-0.5-24.9-3-57.4-11.1-88.1v93.2c-7.8,11.4-18.3,27.3-27.2,42.6
		c-16.6,28.9-18.5,40.6-18.5,46.9c0,4.5,0,20.5,0.1,42.7c0.1,83.1,0.4,302.3,0,315.9c-0.5,4.4,1.5,8.5,2.3,10.2
		c2.2,4.5,7.7,13.2,19.8,20.1c4.7,2.7,9.7,4.8,14.9,6.4C1687.4,1114.6,1694.8,1102.3,1694.7,1088.9z"/>
	<path class="st10" d="M1694.7,1088.9v-8.6c0.3,0,0.5-0.2,0.5-0.5c0,0,0,0,0,0V722.3c0-0.3-0.2-0.5-0.5-0.5c0,0,0,0,0,0h-14.2v-48.5
		h13.4c0.3,0,0.5-0.2,0.5-0.5l0,0c0,0,0-0.2,0-0.5l0,0c0-0.1,0-0.3,0-0.5v-0.1c0-0.2,0-0.4,0.1-0.7V671c0-0.3,0-0.6,0.1-0.9V670
		c0-0.3,0-0.7,0.1-1.1v-0.1c0-0.4,0-0.8,0.1-1.3v-0.1c0-0.5,0.1-0.9,0.1-1.5v-0.1c0-0.5,0-1.1,0.1-1.7v-0.1c0-0.6,0.1-1.2,0.1-1.8
		v-0.1c0-0.7,0-1.3,0.1-2l0,0c0.3-7.3,0.5-17.4,0.3-29.2l0,0c-0.5-24.9-3-57.4-11.1-88.1v93.2c-7.8,11.4-18.3,27.3-27.2,42.6
		c-16.6,28.9-18.5,40.6-18.5,46.9c0,4.5,0,20.5,0.1,42.7c0.1,83.1,0.4,302.3,0,315.9c-0.5,4.4,1.5,8.5,2.3,10.2
		c2.2,4.5,7.7,13.2,19.8,20.1c4.7,2.7,9.7,4.8,14.9,6.4C1687.4,1114.6,1694.8,1102.3,1694.7,1088.9z"/>
	<path class="st11" d="M1811.4,1094.4c0.8-1.7,2.8-5.8,2.3-10.2c-0.2-5.7-0.2-47.7-0.2-100.6l-62.8,10.2l-2.3,0.4v0.1
		c-0.2,0-0.5,0-0.8,0c-2.6,0.2-4.8,2.5-6.8,6.5c-1.1-0.8-2.4-1.2-3.8-1.1l-9.8,0.7c-9.6,0.7-15.4,29-12.9,63.3s12.4,61.4,22,60.7
		l9.8-0.7c1.2-0.1,2.4-0.6,3.3-1.4c0.7,1.1,1.4,2.1,2.3,3c15.8-0.9,29.2-4.5,39.8-10.6C1803.8,1107.6,1809.3,1099,1811.4,1094.4z"/>
	<path class="st12" d="M1811.4,1094.4c0.8-1.7,2.8-5.8,2.3-10.2c-0.2-5.7-0.2-47.7-0.2-100.6l-62.8,10.2l-2.3,0.4v0.1
		c-0.2,0-0.5,0-0.8,0c-2.6,0.2-4.8,2.5-6.8,6.5c-1.1-0.8-2.4-1.2-3.8-1.1l-9.8,0.7c-9.6,0.7-15.4,29-12.9,63.3s12.4,61.4,22,60.7
		l9.8-0.7c1.2-0.1,2.4-0.6,3.3-1.4c0.7,1.1,1.4,2.1,2.3,3c15.8-0.9,29.2-4.5,39.8-10.6C1803.8,1107.6,1809.3,1099,1811.4,1094.4z"/>
	<path class="st13" d="M519.6,1051.2c-1.9-6.6-2.9-13.5-2.9-20.4V632c0-32.7,7.3-65.1,21.5-96.5H395.9c-9.4,0-17,7.6-17,17v38.4
		c0,0.5,0,1,0.1,1.6v0.3c0,0.5,0.1,1,0.2,1.5l0.1,0.3c0.1,0.5,0.2,0.9,0.4,1.4c0,0,0,0.1,0,0.1c0.1,0.5,0.3,0.9,0.5,1.4l0.1,0.3
		c0.2,0.4,0.4,0.9,0.6,1.3c0,0.1,0.1,0.1,0.1,0.2c0.2,0.4,0.4,0.8,0.7,1.1l0.1,0.2c0.3,0.4,0.5,0.8,0.8,1.1l0.2,0.2
		c0.3,0.4,0.6,0.7,1,1.1l0.1,0.1c0.3,0.3,0.7,0.6,1,0.9l0.2,0.2c0.3,0.2,0.6,0.5,0.9,0.7c-7.2,4.4-14.2,9.2-20.7,14.5
		c-17.4,14.4-26.2,29.3-26.2,44.3v166.9h3.4h2.9c1.3,0,2.7,0,4,0.1h0.1l2.5,0.1h0.4l2.9,0.1h0.8l2.1,0.1h0.9l2.3,0.1h0.6l1.1,0.1
		h0.3l1.5,0.1l0.7,0.1l2.1,0.1l0.9,0.1l2.1,0.2h0.2h0.5l2.7,0.2h0.4h0.1l2.2,0.2l0.8,0.1l2,0.2l0.7,0.1l1.2,0.1h0.3l1.1,0.1h0.2
		l2.3,0.3l0.8,0.1l1.9,0.3l0.7,0.1l3,0.4h0.3l1.7,0.3l0.6,0.1l1.8,0.3l0.7,0.1l1.3,0.2l0.4,0.1l0.4,0.1h0.3l2.2,0.4h0.1l0.5,0.1
		l1.7,0.4l0.5,0.1h0.2l1.7,0.4l0.4,0.1l0.6,0.2l0.3,0.1l1.2,0.3l0.4,0.1l1.7,0.4l0.6,0.1l1.6,0.4l0.4,0.1l2,0.6l0.2,0.1l1.7,0.5
		l0.5,0.2l1.4,0.5l0.4,0.1c1.2,0.4,2.3,0.8,3.4,1.2l0.4,0.2l1.2,0.5l0.4,0.2c0.5,0.2,1,0.4,1.5,0.6l0,0c9.1,4,14.3,8.7,14.3,13.8
		c0,0.4,0,0.9-0.1,1.3c0.1,0.5,0.1,1,0.1,1.5v18.2c0,5.1-4.4,9.9-12.1,14.1L410,1113.9H410c0,0.2,0.1,0.5,0.1,0.8
		c0,5.2-8.8,7.8-22.7,9.1c4.2,0.8,8.6,1.2,12.9,1.2h233c1.2,0,2.5,0,3.7-0.1c-41.7-1.2-73.5-12.8-94.8-34.6
		C531.4,1079.3,523.7,1065.9,519.6,1051.2z"/>
	<path class="st2" d="M676.9,1106.5c10.5-12.1,16.5-29.3,17.9-51.1c0.6-8.8,0.3-17.7-0.6-26.5V663.7c0-15.1-8.8-30-26.2-44.3
		c-6.6-5.3-13.5-10.2-20.8-14.5c0.3-0.2,0.6-0.5,0.9-0.7l0.2-0.2c0.3-0.3,0.7-0.6,1-0.9l0.1-0.1c0.3-0.3,0.7-0.7,1-1l0.2-0.2
		c0.3-0.4,0.6-0.8,0.8-1.1l0.1-0.2c0.2-0.4,0.5-0.7,0.7-1.1c0-0.1,0.1-0.1,0.1-0.2c0.2-0.4,0.4-0.8,0.6-1.3l0.1-0.3
		c0.2-0.4,0.4-0.9,0.5-1.4c0,0,0-0.1,0-0.1c0.1-0.5,0.3-0.9,0.3-1.4l0.1-0.3c0.1-0.5,0.2-1,0.2-1.5v-0.3c0-0.5,0.1-1,0.1-1.6v-12.8
		l0,0v-25.6c0-9.4-7.6-17-17-17h-99.2c-14.3,31.4-21.6,63.9-21.6,96.5v398.8c0.1,6.9,1,13.7,2.9,20.4c4,14.9,11.8,28.5,22.5,39.6
		c21.3,21.8,53.1,33.4,94.8,34.6C653.1,1124.4,666.9,1118,676.9,1106.5z"/>
	<path class="st14" d="M676.9,1106.5c10.5-12.1,16.5-29.3,17.9-51.1c0.6-8.8,0.3-17.7-0.6-26.5V663.7c0-15.1-8.8-30-26.2-44.3
		c-6.6-5.3-13.5-10.2-20.8-14.5c0.3-0.2,0.6-0.5,0.9-0.7l0.2-0.2c0.3-0.3,0.7-0.6,1-0.9l0.1-0.1c0.3-0.3,0.7-0.7,1-1l0.2-0.2
		c0.3-0.4,0.6-0.8,0.8-1.1l0.1-0.2c0.2-0.4,0.5-0.7,0.7-1.1c0-0.1,0.1-0.1,0.1-0.2c0.2-0.4,0.4-0.8,0.6-1.3l0.1-0.3
		c0.2-0.4,0.4-0.9,0.5-1.4c0,0,0-0.1,0-0.1c0.1-0.5,0.3-0.9,0.3-1.4l0.1-0.3c0.1-0.5,0.2-1,0.2-1.5v-0.3c0-0.5,0.1-1,0.1-1.6v-12.8
		l0,0v-25.6c0-9.4-7.6-17-17-17h-99.2c-14.3,31.4-21.6,63.9-21.6,96.5v398.8c0.1,6.9,1,13.7,2.9,20.4c4,14.9,11.8,28.5,22.5,39.6
		c21.3,21.8,53.1,33.4,94.8,34.6C653.1,1124.4,666.9,1118,676.9,1106.5z"/>
	<path class="st15" d="M304.5,952.7c14.4,15.9,18,46.1,7.7,64.5c-2.7,4.9-3,9.2-1,13.5c3.5,7.3,13.5,14.3,26.9,19.2
		c-0.2-7,0.1-14,0.9-20.9V830.5h-2.4h-0.5c-1.8,0-3.6,0.1-5.4,0.1h-0.4c-1.9,0.1-3.7,0.1-5.6,0.2h-0.2c-1.8,0.1-3.5,0.2-5.3,0.3
		h-0.5c-1.7,0.1-3.5,0.2-5.2,0.4h-0.2c-1.8,0.2-3.5,0.3-5.2,0.5h-0.4l-4.8,0.5l-0.4,0.1c-1.7,0.2-3.3,0.4-5,0.6l0,0
		c-4.5,0.6-8.8,1.3-12.9,2.1l-66.7-115.5l-5.4-9.3l-2.6-4.5c0-0.1-2-0.8-4.7-1.8l0,0l-3.7-1.3h-0.1l-1.3-0.4l0,0l-1.3-0.5l0,0
		l-1.2-0.4l-0.3-0.1l-1-0.3l-0.2-0.1c-4.4-1.5-8.1-2.7-8.2-2.6l-2.9,1.9l-3,1.9l-92.1,59.3c-0.3,0.2-0.4,0.6-0.2,0.9l8.8,13.6
		c0.2,0.3,0.6,0.4,0.9,0.2l95.2-61.4l7.7,13.3l0,0L266.9,840c-14.4,4.6-23,10.5-23,17c0,0.4,0,0.9,0.1,1.3c-0.1,0.5-0.1,1-0.1,1.5
		V878c0,5,4.3,9.7,11.7,13.8l4.7,53l0.5-0.2C277.8,937.4,293.4,940.3,304.5,952.7z"/>
	<path class="st15" d="M376.3,1122c-0.4,1.1-1,2.2-1.9,3c4.6-0.2,8.9-0.4,12.8-0.8c-3.6-0.7-7.2-1.8-10.6-3.2
		C376.5,1121.4,376.4,1121.8,376.3,1122z"/>
	<path class="st8" d="M376.6,1121c-7.8-3.2-14.7-8.1-20.2-14.5c-10.5-12.1-16.5-29.3-18-51.1c-0.1-1.9-0.2-3.8-0.3-5.6
		c-13.4-4.9-23.4-11.9-26.9-19.2c-2-4.3-1.7-8.6,1-13.5c10.2-18.4,6.6-48.6-7.7-64.5c-11.2-12.4-26.7-15.2-43.7-8l-0.5,0.2l1.1,12.6
		l0.5,5.3l0.8,8.6l0.6,6.9l0.9,9.8l0.6,7.3l1,11.2l0.5,5.6l0.8,9l0.4,4.8l7.5,86l0,0l0.2,2.4h0.1c0,0.2-0.1,0.5-0.1,0.8
		c0,9.7,30,10.3,67.2,10.3c11.6,0,22.5-0.1,32-0.4c0.9-0.8,1.5-1.9,1.9-3C376.4,1121.8,376.5,1121.4,376.6,1121z"/>
	<path class="st16" d="M376.6,1121c-7.8-3.2-14.7-8.1-20.2-14.5c-10.5-12.1-16.5-29.3-18-51.1c-0.1-1.9-0.2-3.8-0.3-5.6
		c-13.4-4.9-23.4-11.9-26.9-19.2c-2-4.3-1.7-8.6,1-13.5c10.2-18.4,6.6-48.6-7.7-64.5c-11.2-12.4-26.7-15.2-43.7-8l-0.5,0.2l1.1,12.6
		l0.5,5.3l0.8,8.6l0.6,6.9l0.9,9.8l0.6,7.3l1,11.2l0.5,5.6l0.8,9l0.4,4.8l7.5,86l0,0l0.2,2.4h0.1c0,0.2-0.1,0.5-0.1,0.8
		c0,9.7,30,10.3,67.2,10.3c11.6,0,22.5-0.1,32-0.4c0.9-0.8,1.5-1.9,1.9-3C376.4,1121.8,376.5,1121.4,376.6,1121z"/>
	<path class="st13" d="M409.9,1115.1c0-0.3,0-0.5-0.1-0.8h0.1l19.1-222.3c7.7-4.2,12.1-9,12.1-14.1v-18.2c0-0.5,0-1-0.1-1.5
		c0.1-0.4,0.1-0.9,0.1-1.3c0-5-5.2-9.7-14.3-13.8l0,0c-0.5-0.2-1-0.4-1.5-0.6l-0.4-0.2l-1.2-0.5l-0.4-0.2c-1.1-0.4-2.2-0.8-3.4-1.2
		l-0.4-0.1L418,840l-0.5-0.2l-1.7-0.5l-0.2-0.1l-2-0.6l-0.4-0.1l-1.6-0.4l-0.6-0.1l-1.7-0.4l-0.4-0.1l-1.2-0.3l-0.3-0.1l-0.6-0.2
		l-0.4-0.1l-1.7-0.4h-0.2l-0.5-0.1l-1.7-0.4l-0.5-0.1h-0.1l-2.2-0.4h-0.3l-0.4-0.1l-0.4-0.1l-1.3-0.2l-0.7-0.1l-1.8-0.3l-0.6-0.1
		l-1.7-0.3h-0.3l-3-0.4l-0.7-0.1l-1.9-0.3l-0.8-0.1l-2.3-0.3h-0.2l-1.1-0.1h-0.3l-1.2-0.1l-0.7-0.1l-2-0.2l-0.8-0.1l-2.2-0.2h-0.1
		h-0.4l-2.7-0.2H371h-0.2l-2.1-0.2l-0.9-0.1l-2.1-0.1l-0.7-0.1l-1.5-0.1h-0.2l-1.1-0.1h-0.6l-2.3-0.1h-0.9l-2.1-0.1h-0.8l-2.9-0.1
		h-0.4l-2.5-0.1h-0.1c-1.3,0-2.7-0.1-4-0.1h-2.9h-3.4v198.4c-0.8,6.9-1.1,13.9-0.9,20.9c6,2.2,12.2,3.8,18.5,4.9
		c8.7,1.6,15.5,6.2,19.8,13.4c10.5,17.8,2.2,46.4,0.1,52.8c3.4,1.4,7,2.5,10.6,3.2C401.1,1122.9,409.9,1120.3,409.9,1115.1z"/>
	<path class="st17" d="M409.9,1115.1c0-0.3,0-0.5-0.1-0.8h0.1l19.1-222.3c7.7-4.2,12.1-9,12.1-14.1v-18.2c0-0.5,0-1-0.1-1.5
		c0.1-0.4,0.1-0.9,0.1-1.3c0-5-5.2-9.7-14.3-13.8l0,0c-0.5-0.2-1-0.4-1.5-0.6l-0.4-0.2l-1.2-0.5l-0.4-0.2c-1.1-0.4-2.2-0.8-3.4-1.2
		l-0.4-0.1L418,840l-0.5-0.2l-1.7-0.5l-0.2-0.1l-2-0.6l-0.4-0.1l-1.6-0.4l-0.6-0.1l-1.7-0.4l-0.4-0.1l-1.2-0.3l-0.3-0.1l-0.6-0.2
		l-0.4-0.1l-1.7-0.4h-0.2l-0.5-0.1l-1.7-0.4l-0.5-0.1h-0.1l-2.2-0.4h-0.3l-0.4-0.1l-0.4-0.1l-1.3-0.2l-0.7-0.1l-1.8-0.3l-0.6-0.1
		l-1.7-0.3h-0.3l-3-0.4l-0.7-0.1l-1.9-0.3l-0.8-0.1l-2.3-0.3h-0.2l-1.1-0.1h-0.3l-1.2-0.1l-0.7-0.1l-2-0.2l-0.8-0.1l-2.2-0.2h-0.1
		h-0.4l-2.7-0.2H371h-0.2l-2.1-0.2l-0.9-0.1l-2.1-0.1l-0.7-0.1l-1.5-0.1h-0.2l-1.1-0.1h-0.6l-2.3-0.1h-0.9l-2.1-0.1h-0.8l-2.9-0.1
		h-0.4l-2.5-0.1h-0.1c-1.3,0-2.7-0.1-4-0.1h-2.9h-3.4v198.4c-0.8,6.9-1.1,13.9-0.9,20.9c6,2.2,12.2,3.8,18.5,4.9
		c8.7,1.6,15.5,6.2,19.8,13.4c10.5,17.8,2.2,46.4,0.1,52.8c3.4,1.4,7,2.5,10.6,3.2C401.1,1122.9,409.9,1120.3,409.9,1115.1z"/>
	<path class="st8" d="M356.4,1106.5c5.5,6.4,12.4,11.3,20.2,14.5c2.1-6.4,10.3-35-0.1-52.8c-4.2-7.2-11.1-11.8-19.8-13.4
		c-6.3-1.1-12.5-2.7-18.5-4.9c0,1.8,0.1,3.7,0.3,5.6C339.9,1077.2,345.9,1094.4,356.4,1106.5z"/>
	<path class="st13" d="M356.4,1106.5c5.5,6.4,12.4,11.3,20.2,14.5c2.1-6.4,10.3-35-0.1-52.8c-4.2-7.2-11.1-11.8-19.8-13.4
		c-6.3-1.1-12.5-2.7-18.5-4.9c0,1.8,0.1,3.7,0.3,5.6C339.9,1077.2,345.9,1094.4,356.4,1106.5z"/>
	<path class="st18" d="M356.4,1106.5c5.5,6.4,12.4,11.3,20.2,14.5c2.1-6.4,10.3-35-0.1-52.8c-4.2-7.2-11.1-11.8-19.8-13.4
		c-6.3-1.1-12.5-2.7-18.5-4.9c0,1.8,0.1,3.7,0.3,5.6C339.9,1077.2,345.9,1094.4,356.4,1106.5z"/>
	<path class="st4" d="M1790.2,361l8.4-8.4c3.1-3.5,2.8-8.9-0.7-12c-3.2-2.9-8.1-2.9-11.3,0l-8.4,8.4l-8.4-8.4
		c-3.5-3.1-8.9-2.8-12,0.7c-2.9,3.2-2.9,8.1,0,11.3l8.4,8.4l-8.4,8.4c-3.5,3.1-3.8,8.5-0.7,12c3.1,3.5,8.5,3.8,12,0.7
		c0.2-0.2,0.5-0.5,0.7-0.7l8.4-8.4l8.4,8.4c3.5,3.1,8.9,2.8,12-0.7c2.9-3.2,2.9-8.1,0-11.3L1790.2,361z"/>
	<path class="st0" d="M1224.2,291.9c-16.5,0-29.9,13.5-29.9,30c0,16.5,13.5,29.9,30,29.9c16.5,0,29.9-13.4,29.9-30
		C1254.1,305.3,1240.7,291.9,1224.2,291.9z M1224.2,334.8c-7.2,0-12.9-5.8-12.9-13c0-7.2,5.8-12.9,13-12.9c7.1,0,12.9,5.8,12.9,12.9
		C1237.2,329,1231.4,334.8,1224.2,334.8C1224.2,334.9,1224.2,334.9,1224.2,334.8L1224.2,334.8z"/>
	<path class="st0" d="M271.3,511c-8.1-8-21.1-8-29.2,0c-8,8.1-8,21.1,0,29.2c8.1,8,21.1,8,29.1,0C279.3,532.1,279.3,519.1,271.3,511
		z M259.3,528.2c-1.4,1.4-3.7,1.4-5.1,0c-1.4-1.4-1.4-3.7,0-5.1c0.7-0.7,1.6-1.1,2.6-1.1c1,0,1.9,0.4,2.6,1.1
		C260.7,524.4,260.7,526.7,259.3,528.2C259.2,528.2,259.2,528.2,259.3,528.2L259.3,528.2z"/>
	<path class="st0" d="M1310.7,590.6c-8.1-8.1-21.1-8.1-29.2,0c-8.1,8.1-8.1,21.1,0,29.2s21.1,8.1,29.2,0c0,0,0,0,0,0
		c8.1-8,8.1-20.9,0.2-29C1310.8,590.7,1310.8,590.7,1310.7,590.6z M1298.7,607.8c-1.4,1.4-3.7,1.4-5.1,0s-1.4-3.7,0-5.1
		s3.7-1.4,5.1,0c0,0,0,0,0,0l0,0C1300.1,604.1,1300.1,606.4,1298.7,607.8L1298.7,607.8z"/>
	<path class="st4" d="M379.5,385.7c-10.5-10.5-27.6-10.5-38.2,0c-10.5,10.5-10.5,27.6,0,38.2c10.5,10.5,27.6,10.5,38.2,0
		c5.1-5.1,7.9-11.9,7.9-19.1C387.4,397.6,384.6,390.8,379.5,385.7z M363.8,408.2c-1.9,1.9-4.9,1.9-6.7,0c-1.9-1.9-1.9-4.9,0-6.7
		c1.9-1.9,4.9-1.9,6.7,0l0,0C365.6,403.3,365.6,406.3,363.8,408.2z"/>
	
		<ellipse transform="matrix(0.7071 -0.7071 0.7071 0.7071 86.8563 743.4909)" class="st4" cx="940.9" cy="266.9" rx="10.3" ry="10.3"/>
	<path class="st0" d="M1672,257.9c-5-2.7-11.2-0.8-13.9,4.2c-2.7,5-0.8,11.2,4.2,13.9c5,2.7,11.2,0.8,13.9-4.2
		C1678.8,266.8,1677,260.6,1672,257.9z"/>
	<path class="st4" d="M1229.1,506.2c-5-2.7-11.3-0.8-14,4.2c-2.7,5-0.8,11.3,4.2,14c5,2.7,11.2,0.8,13.9-4.1
		C1236,515.2,1234.1,509,1229.1,506.2C1229.1,506.3,1229.1,506.2,1229.1,506.2z"/>
	<path class="st7" d="M1923.9,463c-16.5,0-30,13.4-30,29.9c0,16.5,13.4,30,29.9,30c16.5,0,30-13.4,30-29.9c0,0,0,0,0-0.1
		C1953.8,476.4,1940.4,463,1923.9,463z M1923.9,505.9c-7.2,0-13-5.8-13-12.9c0-7.2,5.8-13,12.9-13c7.1,0,12.9,5.8,13,12.9
		C1936.8,500,1931.1,505.8,1923.9,505.9L1923.9,505.9z"/>
	<path class="st13" d="M1382.1,282.3c-8.1-8.1-21.1-8.1-29.2,0c-8.1,8.1-8.1,21.1,0,29.2s21.1,8.1,29.2,0c0,0,0,0,0,0
		c8.1-8,8.1-20.9,0.2-29C1382.2,282.4,1382.2,282.3,1382.1,282.3z M1370.1,299.4c-1.4,1.4-3.7,1.4-5.1,0c0,0,0,0,0,0
		c-1.4-1.4-1.4-3.7,0-5.1c1.4-1.4,3.7-1.4,5.1,0c0,0,0,0,0,0l0,0C1371.5,295.7,1371.5,298,1370.1,299.4
		C1370.1,299.4,1370.1,299.4,1370.1,299.4L1370.1,299.4z"/>
	<path class="st7" d="M104.4,590.6c-8.1-8.1-21.1-8.1-29.2,0c-8.1,8.1-8.1,21.1,0,29.2c8.1,8.1,21.1,8.1,29.2,0
		C112.4,611.7,112.4,598.7,104.4,590.6z M92.4,607.8c-1.4,1.4-3.7,1.4-5.1,0s-1.4-3.7,0-5.1s3.7-1.4,5.1,0c0,0,0,0,0,0
		C93.8,604,93.8,606.3,92.4,607.8C92.3,607.8,92.3,607.8,92.4,607.8L92.4,607.8z"/>
	<path class="st8" d="M596.9,250c-16.5,0-29.9,13.5-29.9,30c0,16.5,13.5,29.9,30,29.9c16.5,0,29.9-13.4,29.9-29.9
		C626.9,263.4,613.5,250,596.9,250z M596.9,292.9c-7.2,0-12.9-5.8-12.9-13s5.8-12.9,13-12.9c7.1,0,12.9,5.8,12.9,13
		C609.9,287.1,604.1,292.9,596.9,292.9L596.9,292.9z"/>
	<path class="st7" d="M777.3,248.9c-5.7,0-10.3,4.6-10.3,10.3s4.6,10.3,10.3,10.3c5.7,0,10.3-4.6,10.3-10.3c0,0,0,0,0,0
		C787.6,253.5,783,248.9,777.3,248.9z"/>
	<path class="st8" d="M294.2,306.3c-5-2.7-11.3-0.8-14,4.2c-2.7,5-0.8,11.3,4.2,14c5,2.7,11.2,0.8,13.9-4.1
		C301.1,315.3,299.3,309,294.2,306.3C294.3,306.3,294.2,306.3,294.2,306.3z"/>
	<path class="st1" d="M1098.3,388c-5-2.7-11.2-0.8-13.9,4.2c-2.7,5-0.8,11.2,4.2,13.9c5,2.7,11.2,0.8,13.9-4.1
		C1105.2,397,1103.4,390.8,1098.3,388C1098.4,388,1098.3,388,1098.3,388z"/>
	
		<ellipse transform="matrix(0.4199 -0.9076 0.9076 0.4199 -704.4536 535.0562)" class="st13" cx="66.3" cy="818.6" rx="10.3" ry="10.3"/>
	<path class="st1" d="M1489.4,363.3c-5-2.7-11.3-0.8-14,4.2c-2.7,5-0.8,11.3,4.2,14c5,2.7,11.2,0.8,13.9-4.1
		C1496.3,372.3,1494.4,366,1489.4,363.3C1489.4,363.3,1489.4,363.3,1489.4,363.3z"/>
	<path class="st1" d="M1941.3,647.7c-5-2.7-11.3-0.8-14,4.2c-2.7,5-0.8,11.3,4.2,14c5,2.7,11.2,0.8,13.9-4.1
		C1948.2,656.7,1946.4,650.4,1941.3,647.7C1941.3,647.7,1941.3,647.7,1941.3,647.7z"/>
	<path class="st7" d="M1381.1,407.6c-3.3-3.3-8.7-3.3-12,0l-8.3,8.4l-8.4-8.4c-3.5-3.1-8.9-2.8-12,0.7c-2.9,3.2-2.9,8.1,0,11.3
		l8.3,8.4l-8.3,8.4c-3.5,3.1-3.8,8.5-0.7,12c3.1,3.5,8.5,3.8,12,0.7c0.2-0.2,0.5-0.5,0.7-0.7l8.4-8.4l8.3,8.4
		c3.1,3.5,8.5,3.8,12,0.7c3.5-3.1,3.8-8.5,0.7-12c-0.2-0.2-0.5-0.5-0.7-0.7l-8.4-8.4l8.4-8.4
		C1384.4,416.3,1384.4,410.9,1381.1,407.6z"/>
	<path class="st1" d="M160.2,410.1c-3.3-3.3-8.7-3.3-12,0l-8.4,8.4l-8.4-8.4c-3.5-3.1-8.9-2.8-12,0.7c-2.9,3.2-2.9,8.1,0,11.3
		l8.4,8.4l-8.4,8.4c-3.5,3.1-3.8,8.5-0.7,12c3.1,3.5,8.5,3.8,12,0.7c0.2-0.2,0.5-0.5,0.7-0.7l8.4-8.4l8.4,8.4
		c3.5,3.1,8.9,2.8,12-0.7c2.9-3.2,2.9-8.1,0-11.3l-8.4-8.4l8.4-8.4C163.5,418.8,163.5,413.5,160.2,410.1
		C160.2,410.1,160.2,410.1,160.2,410.1z"/>
	<path class="st15" d="M1087.4,265.3c-8.1-8-21.1-8-29.2,0c-8,8.1-8,21.1,0,29.2c8.1,8,21.1,8,29.1,0
		C1095.4,286.4,1095.4,273.3,1087.4,265.3z M1075.4,282.4c-1.4,1.4-3.7,1.4-5.1,0c-1.4-1.4-1.4-3.7,0-5.1c1.4-1.4,3.7-1.4,5.1,0
		C1076.8,278.7,1076.8,281,1075.4,282.4L1075.4,282.4z"/>
	<circle class="st15" cx="496.1" cy="386.7" r="10.3"/>
	<path class="st13" d="M1951.6,288.6c-5-2.7-11.3-0.9-14,4.1c-2.7,5-0.9,11.3,4.1,14s11.3,0.9,14-4.1c0,0,0,0,0,0
		C1958.4,297.5,1956.6,291.3,1951.6,288.6z"/>
	<path class="st15" d="M261.6,626.8c-5-2.1-11.2-0.7-14,3.3s-0.8,8.9,4.2,11s11.2,0.7,14-3.3S266.6,628.9,261.6,626.8z"/>
	<path class="st4" d="M1899,808.6c-5-2.7-11.3-0.8-14,4.2c-2.7,5-0.8,11.3,4.2,14s11.3,0.8,14-4.2c0,0,0,0,0,0
		C1905.8,817.5,1903.9,811.3,1899,808.6z"/>
	<path class="st1" d="M1542.8,255.9c-3.3-3.3-8.7-3.3-12,0l-8.4,8.4l-8.3-8.4c-3.5-3.1-8.9-2.8-12,0.7c-2.9,3.2-2.9,8.1,0,11.3
		l8.3,8.4l-8.3,8.4c-3.5,3.1-3.8,8.5-0.7,12c3.1,3.5,8.5,3.8,12,0.7c0.2-0.2,0.5-0.5,0.7-0.7l8.3-8.4l8.4,8.4
		c3.1,3.5,8.5,3.8,12,0.7c3.5-3.1,3.8-8.5,0.7-12c-0.2-0.2-0.5-0.5-0.7-0.7l-8.3-8.4l8.3-8.4
		C1546.1,264.6,1546.1,259.2,1542.8,255.9z"/>
	<path class="st15" d="M2009.3,878.2l8.4-8.3c3.1-3.5,2.8-8.9-0.7-12c-3.2-2.9-8.1-2.9-11.3,0l-8.4,8.3l-8.4-8.3
		c-3.5-3.1-8.9-2.8-12,0.7c-2.9,3.2-2.9,8.1,0,11.3l8.4,8.3l-8.4,8.4c-3.5,3.1-3.8,8.5-0.7,12s8.5,3.8,12,0.7
		c0.2-0.2,0.5-0.5,0.7-0.7l8.4-8.3l8.4,8.3c3.5,3.1,8.9,2.8,12-0.7c2.9-3.2,2.9-8.1,0-11.3L2009.3,878.2z"/>
</g>
</svg>
